<svg width="24" height="30" viewBox="0 0 24 30" fill="none" xmlns="http://www.w3.org/2000/svg">
<path fill-rule="evenodd" clip-rule="evenodd" d="M13.0484 21.1179C12.0495 22.2429 10.6977 23.0475 9.16663 23.3583V27.75C9.16663 28.5324 8.53236 29.1667 7.74996 29.1667C6.96756 29.1667 6.33329 28.5324 6.33329 27.75V23.3583C3.10012 22.702 0.666626 19.8435 0.666626 16.4167V7.91668C0.666626 4.00466 3.83794 0.833344 7.74996 0.833344C11.4456 0.833344 14.4802 3.66358 14.8046 7.27482C15.6445 6.78235 16.6226 6.50001 17.6666 6.50001C20.7962 6.50001 23.3333 9.03706 23.3333 12.1667V17.8333C23.3333 20.4738 21.5274 22.6924 19.0833 23.3215V27.75C19.0833 28.5324 18.449 29.1667 17.6666 29.1667C16.8842 29.1667 16.25 28.5324 16.25 27.75V23.3215C14.9392 22.9841 13.8119 22.1895 13.0484 21.1179ZM12 7.91668V16.4167C12 18.2672 10.8173 19.8414 9.16663 20.4248V16.4167C9.16663 15.6343 8.53236 15 7.74996 15C6.96756 15 6.33329 15.6343 6.33329 16.4167V20.4248C4.6826 19.8414 3.49996 18.2672 3.49996 16.4167V7.91668C3.49996 5.56947 5.40275 3.66668 7.74996 3.66668C10.0972 3.66668 12 5.56947 12 7.91668ZM19.0833 20.2876V16.4167C19.0833 15.6343 18.449 15 17.6666 15C16.8842 15 16.25 15.6343 16.25 16.4167V20.2876C15.4031 19.7977 14.8333 18.8821 14.8333 17.8333V12.1667C14.8333 10.6019 16.1018 9.33334 17.6666 9.33334C19.2314 9.33334 20.5 10.6019 20.5 12.1667V17.8333C20.5 18.8821 19.9302 19.7977 19.0833 20.2876Z" fill="white"/>
</svg>
